<?xml version="1.0"?>
<svg width="640" height="480" xmlns="http://www.w3.org/2000/svg" xmlns:svg="http://www.w3.org/2000/svg">
 <!-- Created with SVG-edit - http://svg-edit.googlecode.com/ -->
 <g>
  <title>Layer 1</title>
  <text stroke="#000000" transform="matrix(1.9892090565518836,0,0,2.695114850997925,-343.39033824755063,-324.3438283242285) " xml:space="preserve" text-anchor="middle" font-family="serif" font-size="24" id="svg_1" y="184.461455" x="278.209776" stroke-width="0" fill="#0000ff">LUIS CURIMANIA</text>
  <rect stroke="#000000" id="svg_2" height="3" width="404" y="120" x="11" stroke-linecap="null" stroke-linejoin="null" stroke-dasharray="null" stroke-width="0" fill="#ff0000"/>
  <rect id="svg_3" stroke="#000000" height="3" width="404" y="182.5" x="12" stroke-linecap="null" stroke-linejoin="null" stroke-dasharray="null" stroke-width="0" fill="#ff0000"/>
  <path d="m267,334c1.066986,-0.942841 2.056335,-0.997742 3.078674,-1c0.695984,-0.001526 1.605316,0 2.605316,0c0.81601,0 1.632019,0 2.630676,0c0.874664,0 1.885681,0 2.506653,0c0.949341,0 1.822723,0.022369 2.872009,-0.021332c0.800934,-0.033356 1.238586,-0.043488 2.640015,-0.312012c1.040985,-0.199463 1.569,-0.371307 2.106659,-0.527985c1.076416,-0.31366 1.598511,-0.487488 3.059998,-0.972015c0.84726,-0.280884 1.614563,-0.537781 2.339996,-0.791992c0.727936,-0.255096 1.902435,-0.696503 2.328003,-0.85733c0.882141,-0.333374 1.775146,-0.675476 2.664001,-0.947998c0.829285,-0.254272 1.960327,-0.456848 2.647156,-0.590179c0.671295,-0.13031 1.69989,-0.454987 2.403503,-0.831146c0.746002,-0.398834 1.438385,-0.902191 2.14801,-1.296021c1.173065,-0.651062 1.976654,-0.784088 2.652008,-1.104004c1.055542,-0.500031 1.544373,-1.032654 2.09198,-1.507996c0.54306,-0.471375 1.530914,-1.286987 2.225342,-1.719147c0.674225,-0.419586 1.686462,-0.999023 2.214661,-1.346191c0.781189,-0.513428 1.661804,-1.131134 2.264496,-1.674652c0.711182,-0.641327 1.15921,-1.17337 1.731506,-1.674652c0.958801,-0.839813 1.672516,-1.089264 2.218658,-1.709351c0.59491,-0.675446 0.492981,-1.559662 0.858673,-2.513336c0.297302,-0.775391 1.251526,-1.371155 1.951996,-1.552002c0.903076,-0.233124 1.612061,-0.759491 1.80368,-1.459656c0.268585,-0.981384 0.510376,-1.773956 1.251831,-2.481171c0.624512,-0.595673 0.567932,-1.466461 0.988495,-2.309845c0.329926,-0.661621 0.97049,-1.342316 1.432007,-1.96933c0.532104,-0.7229 0.55835,-1.780182 0.931335,-2.526154c0.389191,-0.778381 0.670837,-1.766357 0.343658,-2.600006c-0.305725,-0.779022 -1.248291,-0.699158 -2.412659,-0.704498c-0.825012,-0.003784 -1.425018,-0.001221 -2.744995,0c-0.717346,0.000671 -1.459198,-0.001556 -2.208008,0.036011c-0.742035,0.037201 -2.148376,0.222717 -2.789337,0.421326c-0.634918,0.196747 -1.845703,0.862885 -2.437317,1.310669c-0.619812,0.469147 -1.21225,1.013031 -1.884003,1.463989c-1.004791,0.67453 -1.770966,0.958832 -2.514679,1.288849c-0.751099,0.333282 -1.84375,0.966064 -2.17868,1.243317c-0.691162,0.572174 -1.316254,1.261597 -1.973999,1.934998c-0.328827,0.336639 -1.358276,1.272583 -2.099976,1.795502c-0.737335,0.519836 -1.143188,0.726929 -1.863342,1.273346c-1.096313,0.831848 -1.729187,1.535828 -2.037323,1.893341c-0.613861,0.71228 -1.167145,1.450897 -1.925354,2.517334c-0.473145,0.665466 -0.919006,1.322937 -1.373993,1.973999c-0.710388,1.01651 -0.967285,1.369659 -1.5,2.099976c-0.545898,0.748383 -1.096039,1.493713 -1.363342,1.863342c-0.766571,1.060028 -1.23587,1.732788 -1.68399,2.404846c-0.457336,0.685913 -1.166901,1.812347 -1.421509,2.221832c-0.536163,0.862335 -1.095551,1.759796 -1.38916,2.206665c-0.583191,0.887604 -1.175964,1.727997 -1.786652,2.478668c-0.569061,0.699493 -1.14093,1.305786 -1.632019,1.884003c-0.641602,0.755463 -1.116974,1.47525 -1.575989,2.197815c-0.524567,0.825714 -0.961304,1.456848 -1.434662,2.130188c-0.473328,0.673309 -0.969421,1.271515 -1.506683,2.305328c-0.40274,0.774933 -0.856598,1.513062 -1.402649,2.26532c-0.554413,0.763763 -0.722198,1.614777 -1.018677,2.389343c-0.319305,0.834229 -1.121338,1.476288 -1.588989,2.378479c-0.347107,0.669617 -0.315002,1.621521 -0.95285,2.326019l-0.641998,0.452667" id="svg_5" stroke-linecap="null" stroke-linejoin="null" stroke-dasharray="null" stroke-width="0" stroke="#000000" fill="none"/>
  <path stroke="#000000" d="m293,382.000002c39.184324,0 57.035905,0.084843 74.015203,-13.286101c17.888785,-14.086871 30.632891,-35.872569 47.224877,-46.523757c15.632009,-10.035358 39.068728,-2.665419 57.267761,-2.665419l19.592162,0" id="svg_6" stroke-linecap="null" stroke-linejoin="null" stroke-dasharray="null" stroke-width="0" fill="none"/>
  <path id="svg_14" d="m146.927122,131.216571c1.111221,-0.866061 3.533232,0.535496 3.446382,-1.72319c1.100717,-0.775626 1.948478,-2.475462 0.168677,-3.04449c-1.014212,-0.486509 -1.490248,1.075968 -1.843233,1.174489c-0.732515,-1.020697 -0.319201,-2.684459 -0.030883,-3.762839c0.921291,-0.573163 2.43192,-1.227262 1.365837,-2.504354c-0.220881,-1.39397 -0.356091,-3.02005 -1.672761,-3.862632c-0.982674,-0.590222 -2.370224,-1.15291 -1.887985,-2.538481c-0.634419,-0.956919 -1.369039,-2.265116 -0.947894,-3.446615c0.960528,-0.170219 0.84773,2.257327 1.03084,1.744348c-0.36079,-0.780568 0.862393,-2.577796 0.792409,-0.920729c-0.073835,0.594456 -0.026017,1.798929 0.300567,0.605932c0.885347,-1.315251 0.017013,2.279968 0.886034,0.853218c0.613055,-0.198449 0.426254,0.878622 1.017931,0.346072c0.647748,0.494854 1.122108,0.605497 1.119909,1.427873c0.863162,0.312039 1.507109,0.8282 1.336108,1.648612c1.684545,-0.406453 0.244383,1.694498 1.443307,2.280372c0.646266,1.024532 0.936773,2.050973 0.890201,3.267683c1.330213,-0.367617 2.207508,-1.88053 3.581324,-2.351265c1.542407,-0.714804 2.095033,-2.491839 2.430023,-4.026784c0.149564,-0.740604 1.088406,-0.704344 0.800008,0.127582c1.08037,-1.164344 0.629452,-2.859523 0.934546,-4.275449c0.097818,-0.791967 -0.219652,-2.537846 0.447174,-2.700879c0.994942,0.89307 -0.220986,2.867443 0.748865,3.460074c0.68369,-1.275686 0.441354,-2.801534 0.478379,-4.193851c-0.016711,-0.803673 0.78074,-1.335702 0.742189,-0.18853c0.334432,0.990206 -0.038136,3.034482 0.155358,3.394847c0.760214,-1.175386 0.597715,-2.758262 1.403759,-3.86239c1.108989,0.415993 -0.314306,2.282839 -0.278294,3.271777c0.148656,0.759471 1.235574,-2.224154 1.290303,-0.579192c-0.500772,0.434757 -0.416972,1.631817 0.142556,0.667585c0.216123,-0.791848 1.694456,-0.526336 0.740399,0.196401c-0.708456,0.615329 1.242967,0.572065 0.388667,1.24855c0.569973,0.941355 -0.980786,1.498042 -0.093439,2.176566c-0.051036,0.27328 0.708235,0.805274 0.372621,1.461457c0.334581,0.604269 -1.191183,0.996592 -0.195601,1.410013c0.057587,1.409192 -1.723349,2.380954 -1.3331,3.696597c-0.115036,1.585527 -1.311349,2.916079 -2.591629,3.754084c-1.182764,0.224283 -2.10022,0.699313 -3.116859,1.354743c-0.66943,0.011507 -0.907085,0.008374 -1.257158,0.491532c-0.550996,-0.427437 -1.459559,-1.073374 -1.30384,0.221118c0.235808,1.607599 2.275352,1.767412 3.36015,2.622637c1.157005,0.408387 2.670264,1.765782 1.417265,2.828408c-0.121231,1.510514 -2.131272,0.605776 -2.653307,1.128345c-0.748997,0.111971 -0.670963,0.640663 -1.336384,0.010235c-0.64808,0.868561 -2.097777,-0.071584 -2.788959,-0.448284c-1.121131,0.534939 -1.633702,-2.15382 -1.839855,-0.271718c-0.455435,1.279271 -2.305165,-0.095577 -2.29607,1.540107c-0.846276,-0.173887 -0.886103,1.148797 -1.793789,1.015928c0.570898,-0.265075 0.95921,-1.780859 -0.065633,-1.050113c-0.838149,-0.63669 -0.354155,1.566762 -1.045264,0.419479c-0.152024,-1.48949 1.539604,-1.518884 2.492857,-1.786463c0.342348,-0.865684 0.775779,-2.003716 0.68496,-2.838567c-0.901052,0.362188 -1.69123,1.138638 -2.742463,1.204588c0.06544,0.786801 -0.544156,2.058136 -1.481429,1.326092c1.347491,0.525352 0.752095,-2.359665 -0.062218,-0.934009c-0.319209,0.94061 -0.279658,-1.358932 -1.202894,-0.689576c-0.483893,0.351945 -0.155358,1.166915 -0.636083,0.221548c-0.093496,-0.190596 -0.108133,-0.461252 0.087418,-0.598494l0,0.000002z" stroke-linecap="null" stroke-linejoin="null" stroke-dasharray="null" stroke-width="0" stroke="#000000" fill="none"/>
  <path id="svg_15" d="m39.589471,500.870175c9.72319,-7.578033 30.915789,4.685592 30.155855,-15.077919c9.63128,-6.786734 17.049186,-21.660298 1.475921,-26.639295c-8.874362,-4.256954 -13.039679,9.41472 -16.128292,10.276783c-6.409511,-8.9311 -2.793008,-23.489024 -0.270224,-32.924857c8.061299,-5.015175 21.279309,-10.738548 11.951076,-21.913109c-1.932709,-12.197245 -3.1158,-26.425446 -14.636665,-33.798045c-8.598402,-5.164449 -20.73947,-10.087969 -16.519879,-22.211715c-5.551165,-8.373049 -11.979095,-19.819771 -8.294077,-30.15789c8.404628,-1.489419 7.417642,19.751619 9.019853,15.263049c-3.156914,-6.829974 7.545944,-22.555728 6.933577,-8.056379c-0.646055,5.201491 -0.227652,15.740637 2.629963,5.301905c7.746789,-11.508454 0.148862,19.949728 7.752804,7.465662c5.364231,-1.736429 3.729724,7.687949 8.906897,3.028135c5.667797,4.329976 9.818445,5.298098 9.799211,12.49389c7.552668,2.730345 13.187206,7.246753 11.690947,14.425362c14.739774,-3.556469 2.13835,14.826863 12.62894,19.953264c5.654826,8.964656 8.19677,17.946025 7.789262,28.592235c11.639367,-3.216651 19.315705,-16.454645 31.336598,-20.573574c13.496071,-6.254535 18.331547,-21.803597 21.262712,-35.234376c1.30869,-6.480292 9.523556,-6.163012 7.000072,1.116341c9.453238,-10.188013 5.507711,-25.020834 8.17728,-37.410197c0.855907,-6.929712 -1.921954,-22.206161 3.912777,-23.632702c8.705747,7.814363 -1.933632,25.090139 6.552572,30.275659c5.982291,-11.162258 3.861849,-24.513431 4.18582,-36.696213c-0.146225,-7.032146 6.831474,-11.687395 6.494153,-1.649637c2.926278,8.664304 -0.333687,26.551729 1.359387,29.704926c6.651874,-10.284636 5.230004,-24.134807 12.2829,-33.795927c9.703659,3.63994 -2.75018,19.974846 -2.435077,28.628058c1.300737,6.645372 10.811273,-19.461353 11.290155,-5.067932c-4.381753,3.804122 -3.648511,14.278404 1.247362,5.841374c1.891076,-6.928674 14.826492,-4.605442 6.478495,1.718505c-6.198992,5.384132 10.875964,5.005574 3.400842,10.924815c4.987263,8.236861 -8.581879,13.107871 -0.817595,19.044962c-0.446569,2.391202 6.197055,7.046147 3.260435,12.787757c2.927588,5.287352 -10.422859,8.720185 -1.711509,12.337619c0.503884,12.330433 -15.079312,20.833357 -11.664634,32.34524c-1.006565,13.873368 -11.474312,25.515702 -22.67676,32.84825c-10.349186,1.962474 -18.376929,6.11899 -27.272527,11.854008c-5.857517,0.100686 -7.936995,0.073269 -11.000136,4.300911c-4.821219,-3.740074 -12.771144,-9.392025 -11.408608,1.934785c2.063317,14.0665 19.90934,15.464858 29.401326,22.948081c10.1238,3.573388 23.364818,15.450601 12.401074,24.748582c-1.060773,13.217004 -18.648637,5.300546 -23.216443,9.873024c-6.553726,0.97975 -5.870925,5.605802 -11.693361,0.089553c-5.670698,7.599913 -18.355552,-0.626359 -24.403399,-3.922485c-9.8099,4.680722 -14.294902,-18.84593 -16.098741,-2.377531c-3.985057,11.193622 -20.170203,-0.836302 -20.090622,13.475939c-7.404919,-1.521509 -7.753406,10.051982 -15.695658,8.889377c4.995356,-2.319409 8.39309,-15.58252 -0.574285,-9.188493c-7.333809,-5.571042 -3.098857,13.70917 -9.146061,3.67044c-1.330207,-13.033045 13.471538,-13.29024 21.812506,-15.631561c2.99555,-7.574737 6.788069,-17.532526 5.9934,-24.837467c-7.884212,3.169143 -14.798267,9.963088 -23.996559,10.540151c0.572604,6.884512 -4.761366,18.008697 -12.962512,11.603314c11.790553,4.59683 6.580838,-20.647074 -0.544404,-8.172583c-2.793082,8.230343 -2.447009,-11.890663 -10.525326,-6.033796c-4.234062,3.079524 -1.359387,10.21051 -5.565727,1.938543c-0.81809,-1.667717 -0.94616,-4.035952 0.764912,-5.236828l0,0.000016z" stroke-linecap="null" stroke-linejoin="null" stroke-dasharray="null" stroke-width="0" stroke="#000000" fill="none"/>
  <path id="svg_18" d="m360.013096,102.418551c3.413038,-2.660044 10.852073,1.644738 10.58532,-5.292657c3.380776,-2.382282 5.984612,-7.603206 0.518078,-9.350936c-3.115082,-1.494278 -4.577193,3.304759 -5.66136,3.60736c-2.249869,-3.134998 -0.980403,-8.245127 -0.094854,-11.557296c2.82968,-1.760429 7.469471,-3.769449 4.195072,-7.691948c-0.67842,-4.281482 -1.093709,-9.275871 -5.137768,-11.863803c-3.018215,-1.812827 -7.279977,-3.541083 -5.798815,-7.796765c-1.948572,-2.939111 -4.204907,-6.957144 -2.91139,-10.586035c2.950196,-0.522816 2.603744,6.933221 3.166153,5.357642c-1.108141,-2.39746 2.64878,-7.917521 2.433827,-2.827953c-0.226778,1.82583 -0.079911,5.525285 0.923171,1.861077c2.719281,-4.039702 0.052254,7.002762 2.721392,2.6206c1.882954,-0.609522 1.309209,2.698627 3.126502,1.062937c1.989513,1.51991 3.446475,1.859741 3.439723,4.38561c2.651141,0.958407 4.628978,2.543758 4.103761,5.063596c5.173961,-1.248393 0.750604,5.204531 4.433016,7.004003c1.984959,3.146777 2.877233,6.299421 2.73419,10.036458c4.085655,-1.12911 6.780207,-5.775916 10.999785,-7.221744c4.737396,-2.195469 6.434747,-7.653507 7.463646,-12.367985c0.459377,-2.274715 3.342963,-2.163343 2.457168,0.391859c3.318279,-3.5762 1.933319,-8.782823 2.870392,-13.131742c0.300441,-2.43247 -0.674645,-7.794815 1.373465,-8.295561c3.055895,2.743001 -0.678744,8.807151 2.300086,10.627374c2.099906,-3.91818 1.355588,-8.604714 1.469308,-12.88112c-0.051328,-2.468427 2.397987,-4.102514 2.27958,-0.579056c1.027183,3.041347 -0.117131,9.320198 0.477173,10.427035c2.334943,-3.610117 1.835838,-8.471809 4.311549,-11.86306c3.406182,1.277693 -0.965369,7.011579 -0.854762,10.049032c0.456585,2.332661 3.794978,-6.831332 3.963075,-1.778948c-1.538085,1.335324 -1.280702,5.012011 0.437849,2.050441c0.663806,-2.432106 5.204401,-1.616604 2.274084,0.60323c-2.175973,1.88994 3.817685,1.757059 1.193765,3.834833c1.750631,2.891306 -3.012415,4.60113 -0.286993,6.68517c-0.156755,0.839361 2.175293,2.473341 1.144479,4.488764c1.027643,1.855968 -3.658636,3.060963 -0.600775,4.330756c0.176874,4.328234 -5.293146,7.312933 -4.094524,11.353839c-0.353325,4.869835 -4.027718,8.956532 -7.960006,11.530406c-3.632776,0.688869 -6.450677,2.14789 -9.573214,4.160998c-2.056108,0.035343 -2.786047,0.025719 -3.861272,1.509707c-1.692346,-1.312842 -4.482932,-3.296792 -4.004654,0.679149c0.724266,4.937628 6.988585,5.428481 10.320465,8.055244c3.55366,1.254332 8.201528,5.423476 4.35303,8.687257c-0.372353,4.639438 -6.546052,1.8606 -8.149445,3.465633c-2.300491,0.343912 -2.060814,1.967751 -4.104608,0.031435c-1.990531,2.667724 -6.443173,-0.219865 -8.566091,-1.376872c-3.443475,1.643029 -5.017802,-6.615306 -5.650986,-0.834562c-1.398836,3.92919 -7.080153,-0.293559 -7.052218,4.730329c-2.599278,-0.534081 -2.721604,3.528451 -5.509496,3.120353c1.753472,-0.81416 2.946146,-5.469782 -0.201586,-3.225349c-2.574316,-1.955549 -1.087762,4.812198 -3.210454,1.288399c-0.46693,-4.574865 4.728785,-4.665146 7.656634,-5.486997c1.051499,-2.658887 2.382751,-6.154274 2.103806,-8.718458c-2.767519,1.112434 -5.194494,3.497247 -8.423282,3.699808c0.200996,2.416604 -1.671337,6.32142 -4.550106,4.073c4.138725,1.613581 2.310008,-7.247544 -0.191097,-2.868743c-0.980429,2.889018 -0.85895,-4.173865 -3.694604,-2.117986c-1.486242,1.080976 -0.477173,3.584097 -1.953684,0.680468c-0.287166,-0.585403 -0.332122,-1.416702 0.2685,-1.838233l0,0.000006z" stroke-linecap="null" stroke-linejoin="null" stroke-dasharray="null" stroke-width="0" stroke="#000000" fill="#000000"/>
 </g>
</svg>