<?xml version="1.0" encoding="UTF-8" standalone="no"?>
<!-- Created with Inkscape (http://www.inkscape.org/) -->

<svg
   xmlns:dc="http://purl.org/dc/elements/1.1/"
   xmlns:cc="http://creativecommons.org/ns#"
   xmlns:rdf="http://www.w3.org/1999/02/22-rdf-syntax-ns#"
   xmlns:svg="http://www.w3.org/2000/svg"
   xmlns="http://www.w3.org/2000/svg"
   xmlns:sodipodi="http://sodipodi.sourceforge.net/DTD/sodipodi-0.dtd"
   xmlns:inkscape="http://www.inkscape.org/namespaces/inkscape"
   width="210mm"
   height="297mm"
   viewBox="0 0 210 297"
   version="1.1"
   id="svg8"
   inkscape:version="0.92.1 r15371"
   sodipodi:docname="LuisCurimania.svg">
  <defs
     id="defs2" />
  <sodipodi:namedview
     id="base"
     pagecolor="#ffffff"
     bordercolor="#666666"
     borderopacity="1.0"
     inkscape:pageopacity="0.0"
     inkscape:pageshadow="2"
     inkscape:zoom="0.35"
     inkscape:cx="400"
     inkscape:cy="560"
     inkscape:document-units="mm"
     inkscape:current-layer="layer1"
     showgrid="false"
     inkscape:window-width="1366"
     inkscape:window-height="705"
     inkscape:window-x="-8"
     inkscape:window-y="-8"
     inkscape:window-maximized="1" />
  <metadata
     id="metadata5">
    <rdf:RDF>
      <cc:Work
         rdf:about="">
        <dc:format>image/svg+xml</dc:format>
        <dc:type
           rdf:resource="http://purl.org/dc/dcmitype/StillImage" />
        <dc:title></dc:title>
      </cc:Work>
    </rdf:RDF>
  </metadata>
  <g
     inkscape:label="Capa 1"
     inkscape:groupmode="layer"
     id="layer1">
    <g
       id="g21"
       transform="translate(-7.5595258,17.311307)">
      <path
         style="fill:#e8e8e8;stroke-width:0.26458335"
         d="m -17.065628,131.44642 v -25.66458 l 1.918229,0.002 1.918229,0.002 15.0812511,25.02657 c 8.2946879,13.7646 15.2338809,25.31285 15.4204309,25.66275 l 0.339177,0.6362 H 0.27303101 -17.065628 Z m 33.317999,0.0629 -19.7309635,-25.59517 1.0760911,-0.0845 c 0.9450452,-0.0742 1.1646483,0.0224 1.8032797,0.79375 0.39995371,0.48304 0.90675464,1.08661 1.12622467,1.34127 0.21947003,0.25466 0.3990364,0.57533 0.3990364,0.7126 0,0.13727 0.26789063,0.43722 0.59531253,0.66656 0.3274219,0.22933 0.5772992,0.50397 0.5552826,0.61031 -0.022016,0.10634 0.1951742,0.491 0.4826458,0.8548 0.2874717,0.36381 0.435917,0.49424 0.3298788,0.28985 -0.1278535,-0.24643 -0.088448,-0.30712 0.1169824,-0.18015 0.170379,0.1053 0.2576184,0.27585 0.1938658,0.379 -0.063753,0.10316 0.123231,0.48188 0.4155188,0.84162 0.2922882,0.35973 0.4431734,0.48683 0.335301,0.28245 -0.1304703,-0.2472 -0.092423,-0.30752 0.1136478,-0.18016 0.1703789,0.1053 0.2561624,0.27821 0.1906302,0.38425 -0.1779612,0.28794 0.3060615,0.9604 0.6961796,0.96721 0.1872088,0.003 0.3090423,0.19574 0.270741,0.42772 -0.067316,0.40772 0.3173034,0.88223 0.8633889,1.06519 0.1455208,0.0488 0.2306402,0.19048 0.189154,0.31494 -0.1080177,0.32405 0.4909651,0.98403 0.7485846,0.82481 0.1189771,-0.0735 0.3024762,0.006 0.4077762,0.17609 0.1195712,0.19347 0.076766,0.2389 -0.1140095,0.12099 -0.1680049,-0.10383 -0.3054636,-0.11972 -0.3054636,-0.0353 0,0.0844 4.8438857,6.43153 10.7641897,14.10468 5.920304,7.67315 12.549913,16.27291 14.732464,19.11056 2.182553,2.83766 4.377698,5.66539 4.878101,6.28386 l 0.909823,1.12448 -1.156351,-0.003 -1.156351,-0.003 -19.730961,-25.59517 z m 18.404576,0.57847 C 20.397812,118.32498 8.4362976,106.77592 8.0758028,106.42318 L 7.4203579,105.78184 H 123.368 239.31563 v 25.66458 25.66459 H 149.94914 60.582649 Z m 127.664933,16.55657 c 0,-0.14552 -0.59531,-0.26458 -1.32292,-0.26458 h -1.32291 v -0.92605 c 0,-0.90399 0.0252,-0.92604 1.05833,-0.92604 0.58208,0 1.05833,-0.11906 1.05833,-0.26458 0,-0.14552 -0.47625,-0.26458 -1.05833,-0.26458 -1.03314,0 -1.05833,-0.022 -1.05833,-0.92605 0,-0.92114 0.006,-0.92604 1.19062,-0.92604 0.65484,0 1.19063,-0.11906 1.19063,-0.26458 0,-0.14699 -0.70556,-0.26458 -1.5875,-0.26458 h -1.5875 v 2.64583 2.64583 h 1.71979 c 0.97014,0 1.71979,-0.11533 1.71979,-0.26458 z m 2.66323,-0.009 c 0.94699,-0.50682 0.53173,-1.65933 -0.67886,-1.88408 -0.79775,-0.1481 -0.64966,-0.87088 0.19844,-0.96846 0.97193,-0.11183 0.93383,-0.57773 -0.0473,-0.57773 -0.70693,0 -1.61227,0.57127 -1.60234,1.01108 0.01,0.42987 0.45128,0.81239 1.13631,0.98432 1.03502,0.25977 0.84118,1.02162 -0.28766,1.13059 -0.47451,0.0458 -0.79393,0.19463 -0.70982,0.33073 0.20399,0.33007 1.35355,0.3148 1.99118,-0.0265 z m 3.2782,0.0282 c 0.0835,-0.13512 -0.11782,-0.28394 -0.4474,-0.33073 -0.51263,-0.0728 -0.61089,-0.26671 -0.67988,-1.34183 -0.0717,-1.11772 -0.0205,-1.25677 0.46302,-1.25677 0.29901,0 0.54366,-0.11906 0.54366,-0.26459 0,-0.14552 -0.23812,-0.26458 -0.52916,-0.26458 -0.35278,0 -0.52917,-0.17639 -0.52917,-0.52917 0,-0.29104 -0.11906,-0.52916 -0.26458,-0.52916 -0.14552,0 -0.26459,0.23812 -0.26459,0.52916 0,0.29399 -0.17639,0.52917 -0.39687,0.52917 -0.21828,0 -0.39688,0.11906 -0.39688,0.26458 0,0.14553 0.1786,0.26459 0.39688,0.26459 0.29765,0 0.39687,0.3175 0.39687,1.27 0,0.6985 0.14288,1.41287 0.3175,1.5875 0.37707,0.37707 1.17644,0.41836 1.3906,0.0718 z m 3.43628,-0.34237 c 0.54428,-0.77708 0.56546,-3.11612 0.0282,-3.11612 -0.28149,0 -0.4048,0.40517 -0.46302,1.52135 -0.0743,1.42523 -0.12114,1.52135 -0.74081,1.52135 -0.61966,0 -0.66647,-0.0961 -0.7408,-1.52135 -0.0582,-1.11618 -0.18154,-1.52135 -0.46303,-1.52135 -0.28163,0 -0.38367,0.33617 -0.38367,1.26404 0,1.58479 0.55646,2.44012 1.5875,2.44012 0.4893,0 0.91175,-0.21131 1.17563,-0.58804 z m 4.64521,-2.24762 c 0,-2.24191 -0.0698,-2.72059 -0.39688,-2.72059 -0.28364,0 -0.39687,0.28889 -0.39687,1.01251 0,0.96684 -0.0346,1.00743 -0.76757,0.89986 -1.57612,-0.23133 -2.52262,1.9412 -1.35459,3.10923 0.38856,0.38856 0.83232,0.51025 1.7198,0.47162 l 1.19611,-0.0521 z m -2.31511,2.13127 c -0.18519,-0.0747 -0.33073,-0.58727 -0.33073,-1.1647 0,-0.87294 0.0992,-1.05615 0.64642,-1.19348 0.92621,-0.23247 1.20567,0.0452 1.20567,1.1978 0,1.16684 -0.52084,1.56409 -1.52136,1.16038 z m 4.16719,-1.14769 c 0,-1.46991 -0.0819,-1.85208 -0.39688,-1.85208 -0.31498,0 -0.39687,0.38217 -0.39687,1.85208 0,1.46991 0.0819,1.85208 0.39687,1.85208 0.31499,0 0.39688,-0.38217 0.39688,-1.85208 z m 3.70417,0.23099 c 0,-1.24711 -0.0961,-1.5867 -0.51178,-1.80918 -0.65392,-0.34997 -2.13406,-0.35643 -2.13406,-0.009 0,0.14552 0.34261,0.26458 0.76136,0.26458 0.41874,0 0.90957,0.1786 1.09073,0.39688 0.28186,0.33963 0.19876,0.39687 -0.57615,0.39687 -1.03579,0 -1.54052,0.3901 -1.54052,1.19063 0,0.85396 0.52672,1.19499 1.77284,1.14786 l 1.13758,-0.043 z m -2.28071,0.70772 c -0.21714,-0.56585 0.11076,-0.93871 0.8255,-0.93871 0.77973,0 1.07614,0.42638 0.65184,0.93763 -0.4118,0.49619 -1.28711,0.49683 -1.47734,0.001 z m 4.13279,-0.52401 c 0,-1.20285 0.0859,-1.46465 0.5268,-1.60457 0.84022,-0.26668 1.0607,0.0664 1.0607,1.60236 0,1.10325 0.0927,1.43959 0.39687,1.43959 0.30055,0 0.39688,-0.32531 0.39688,-1.34031 0,-2.01982 -0.28625,-2.37447 -1.86119,-2.30594 l -1.31381,0.0572 v 1.79455 c 0,1.41876 0.0831,1.79454 0.39687,1.79454 0.30408,0 0.39688,-0.33609 0.39688,-1.43738 z m 5.29167,1.20366 c 0,-0.12855 -0.23813,-0.296 -0.52917,-0.37211 -0.43229,-0.11304 -0.52917,-0.36089 -0.52917,-1.35377 0,-1.03901 0.0768,-1.2154 0.52917,-1.2154 0.29104,0 0.52917,-0.11906 0.52917,-0.26458 0,-0.14552 -0.23813,-0.26458 -0.52917,-0.26458 -0.35278,0 -0.52917,-0.17639 -0.52917,-0.52917 0,-0.29104 -0.11906,-0.52917 -0.26458,-0.52917 -0.14552,0 -0.26458,0.23813 -0.26458,0.52917 0,0.29398 -0.17639,0.52917 -0.39688,0.52917 -0.21828,0 -0.39687,0.11906 -0.39687,0.26458 0,0.14552 0.17859,0.26458 0.39687,0.26458 0.30317,0 0.39688,0.33318 0.39688,1.41111 0,0.77612 0.0794,1.49049 0.17639,1.5875 0.26093,0.26094 1.41111,0.2142 1.41111,-0.0573 z m 3.57187,-0.0309 c 0.095,-0.15376 -0.16643,-0.26458 -0.6242,-0.26458 -1.05397,0 -1.62476,-0.24232 -1.62476,-0.68977 0,-0.26043 0.34932,-0.36857 1.19063,-0.36857 1.04554,0 1.19062,-0.07 1.19062,-0.57448 0,-0.7717 -0.73791,-1.54218 -1.47701,-1.54218 -0.89417,0 -1.77744,1.25266 -1.58281,2.24478 0.0861,0.43886 0.35628,0.94675 0.60042,1.12865 0.53047,0.39525 2.09621,0.43975 2.32711,0.0661 z m -2.18911,-2.16391 c 0.20177,-0.60531 0.9279,-0.86988 1.37318,-0.50033 0.66401,0.55108 0.49394,0.81216 -0.52903,0.81216 -0.61023,0 -0.91105,-0.11113 -0.84415,-0.31183 z m 7.74536,2.16391 c 0.095,-0.15376 -0.16643,-0.26458 -0.6242,-0.26458 -1.05397,0 -1.62476,-0.24232 -1.62476,-0.68977 0,-0.26043 0.34933,-0.36857 1.19063,-0.36857 1.04554,0 1.19062,-0.07 1.19062,-0.57448 0,-0.7717 -0.73791,-1.54218 -1.47701,-1.54218 -0.89417,0 -1.77744,1.25266 -1.58281,2.24478 0.0861,0.43886 0.35628,0.94675 0.60042,1.12865 0.53047,0.39525 2.09621,0.43975 2.32711,0.0661 z m -2.18911,-2.16391 c 0.20177,-0.60531 0.9279,-0.86988 1.37318,-0.50033 0.66401,0.55108 0.49394,0.81216 -0.52903,0.81216 -0.61023,0 -0.91105,-0.11113 -0.84415,-0.31183 z m 3.96122,1.06668 c 0.0844,-1.43724 0.56081,-2.04064 1.36693,-1.73131 0.32854,0.12608 0.43284,0.51874 0.43284,1.62961 0,1.12451 0.0919,1.46351 0.39687,1.46351 0.50379,0 0.54101,-1.94757 0.0556,-2.91041 -0.37293,-0.73976 -1.34039,-1 -1.92227,-0.51708 -0.27062,0.22459 -0.38232,0.23052 -0.38232,0.0203 0,-0.16334 -0.11906,-0.29698 -0.26458,-0.29698 -0.15119,0 -0.26458,0.79375 -0.26458,1.85208 0,2.13425 0.46206,2.52384 0.58148,0.49027 z m 6.08812,-0.63137 0.0773,-1.99318 1.32292,1.98532 c 0.7276,1.09193 1.47174,1.98886 1.65364,1.99318 0.24306,0.006 0.33073,-0.6935 0.33073,-2.63797 0,-1.5875 -0.10583,-2.64583 -0.26458,-2.64583 -0.15487,0 -0.26458,0.89932 -0.26458,2.16881 v 2.16882 l -1.49907,-2.16882 c -0.82448,-1.19285 -1.65792,-2.16881 -1.85208,-2.16881 -0.27077,0 -0.35302,0.61646 -0.35302,2.64583 0,2.14153 0.0735,2.64583 0.38575,2.64583 0.29696,0 0.40353,-0.45875 0.46302,-1.99318 z m 7.22102,1.7286 c 0.0966,-0.15633 -0.2001,-0.26458 -0.72522,-0.26458 -0.84076,0 -1.52374,-0.3795 -1.52374,-0.84667 0,-0.11642 0.58701,-0.21167 1.30445,-0.21167 h 1.30445 l -0.24128,-0.84129 c -0.3777,-1.31697 -1.4658,-1.69463 -2.41293,-0.83749 -0.61172,0.55359 -0.63774,2.12853 -0.046,2.78243 0.46983,0.51916 2.06267,0.6684 2.34024,0.21927 z m -2.18911,-2.16391 c 0.20177,-0.60531 0.9279,-0.86988 1.37319,-0.50033 0.664,0.55108 0.49394,0.81216 -0.52904,0.81216 -0.61023,0 -0.91105,-0.11113 -0.84415,-0.31183 z m 4.16807,1.71383 0.56215,-0.71466 0.62396,0.78081 c 0.34318,0.42944 0.70774,0.69778 0.81013,0.5963 0.10239,-0.10148 -0.0655,-0.50449 -0.37316,-0.89558 -0.69095,-0.8784 -0.69331,-1.04737 -0.0265,-1.89514 0.74733,-0.95007 0.35823,-1.15894 -0.43724,-0.23471 -0.62553,0.72677 -0.66891,0.73795 -1.02741,0.26458 -0.20587,-0.27183 -0.37809,-0.58353 -0.38272,-0.69267 -0.005,-0.10914 -0.20114,-0.19843 -0.43669,-0.19843 -0.34482,0 -0.29573,0.17378 0.25192,0.89179 l 0.68021,0.89179 -0.6488,0.87941 c -0.72715,0.98559 -0.74869,1.04117 -0.40343,1.04117 0.13496,0 0.49835,-0.3216 0.80754,-0.71466 z m 4.76792,0.48094 c 0,-0.12855 -0.23813,-0.296 -0.52917,-0.37211 -0.43229,-0.11304 -0.52917,-0.36089 -0.52917,-1.35377 0,-1.03901 0.0768,-1.2154 0.52917,-1.2154 0.29104,0 0.52917,-0.11906 0.52917,-0.26458 0,-0.14552 -0.23813,-0.26458 -0.52917,-0.26458 -0.35278,0 -0.52917,-0.17639 -0.52917,-0.52917 0,-0.29104 -0.11906,-0.52917 -0.26458,-0.52917 -0.14552,0 -0.26458,0.23813 -0.26458,0.52917 0,0.29398 -0.17639,0.52917 -0.39688,0.52917 -0.21828,0 -0.39687,0.11906 -0.39687,0.26458 0,0.14552 0.17859,0.26458 0.39687,0.26458 0.30317,0 0.39688,0.33318 0.39688,1.41111 0,0.77612 0.0794,1.49049 0.17639,1.5875 0.26093,0.26094 1.41111,0.2142 1.41111,-0.0573 z m 3.45289,-0.17919 c 0.18848,-0.2271 0.3964,-1.06054 0.46204,-1.85208 0.0981,-1.18347 0.0454,-1.43917 -0.29709,-1.43917 -0.32128,0 -0.43457,0.34704 -0.49579,1.51878 -0.0656,1.25648 -0.16771,1.53562 -0.59102,1.61627 -0.72313,0.13778 -1.20812,-0.6631 -1.20812,-1.995 0,-0.62703 -0.11906,-1.14005 -0.26458,-1.14005 -0.44675,0 -0.31708,2.82011 0.15119,3.28839 0.53406,0.53406 1.80118,0.53567 2.24337,0.003 z M 177.9323,144.0144 c 0,-0.21828 -0.11907,-0.39687 -0.26459,-0.39687 -0.14552,0 -0.26458,0.17859 -0.26458,0.39687 0,0.21828 0.11906,0.39688 0.26458,0.39688 0.14552,0 0.26459,-0.1786 0.26459,-0.39688 z M 78.95086,132.22371 c 0.706144,-0.39688 1.403562,-1.09188 1.839148,-1.83278 0.690743,-1.1749 0.702982,-1.28093 0.786628,-6.81586 l 0.08497,-5.6224 h -1.317392 -1.31739 l -0.09483,5.09323 c -0.07866,4.22478 -0.173802,5.23909 -0.557993,5.94865 -1.17407,2.16838 -4.768284,2.2169 -5.873687,0.0793 -0.318595,-0.61609 -0.401354,-1.84269 -0.401354,-5.94864 v -5.17252 h -1.45521 -1.455208 v 4.97906 c 0,5.75761 0.267367,7.10695 1.679406,8.47555 1.289206,1.24955 2.57756,1.65194 4.948113,1.54545 1.504413,-0.0676 2.27802,-0.24749 3.134799,-0.72902 z m 18.973785,0.41956 c 2.085825,-0.61943 3.278485,-2.16015 3.278485,-4.2353 0,-2.40097 -1.18734,-3.526 -4.514203,-4.2773 -2.833044,-0.63979 -3.829592,-1.8513 -2.685256,-3.26449 0.75003,-0.92625 3.986713,-0.98856 6.224179,-0.11984 0.42546,0.16519 0.47051,0.055 0.39688,-0.97096 -0.11451,-1.59545 -0.858518,-1.94042 -4.202833,-1.94872 -2.304408,-0.006 -2.628054,0.0571 -3.596672,0.69771 -1.42706,0.94386 -2.034276,2.26685 -1.882185,4.10087 0.184689,2.22713 1.4747,3.25002 4.96842,3.93963 2.090391,0.41261 2.884172,1.30981 2.365589,2.67379 -0.567743,1.49327 -3.738965,1.84155 -7.061944,0.77557 -0.549029,-0.17612 -0.595312,-0.10982 -0.595312,0.8528 0,0.57407 0.158152,1.17502 0.351449,1.33544 0.97763,0.81136 4.873855,1.05836 6.953403,0.4408 z m 19.484215,0.11216 c 0.97245,-0.27006 0.99218,-0.3011 0.99218,-1.56013 v -1.28459 l -1.23267,0.37098 c -4.04631,1.21776 -6.97809,-0.79398 -6.9636,-4.77831 0.0154,-4.22995 2.98088,-6.25632 7.33638,-5.01308 0.55514,0.15846 0.59531,0.0885 0.59531,-1.03594 0,-0.66323 -0.11888,-1.27934 -0.26417,-1.36914 -0.14529,-0.0898 -1.07425,-0.23118 -2.06433,-0.31419 -4.99674,-0.4189 -8.33391,2.65948 -8.37144,7.72227 -0.0193,2.60677 0.52184,4.14344 1.95044,5.53843 1.76276,1.72129 5.29646,2.48059 8.0219,1.7237 z m 12.17806,-0.002 c 0.54968,-0.15264 1.41897,-0.64591 1.93175,-1.09613 1.72646,-1.51586 1.80624,-1.85229 1.91663,-8.08223 l 0.0996,-5.62228 h -1.34924 -1.34923 v 4.51305 c 0,4.94222 -0.2565,6.51564 -1.20792,7.40945 -0.83953,0.7887 -2.89509,0.9953 -4.03545,0.4056 -1.56496,-0.80927 -1.75828,-1.5635 -1.85446,-7.23487 l -0.0864,-5.09323 h -1.30269 -1.30268 v 4.97906 c 0,5.75761 0.26736,7.10695 1.6794,8.47555 0.49509,0.47986 1.36156,1.03693 1.92548,1.23794 1.23164,0.43902 3.5601,0.49007 4.93516,0.10821 z m -62.779628,-1.1746 v -1.19062 h -3.439584 -3.439583 v -6.21771 -6.21771 h -1.455208 -1.455209 v 7.40834 7.40833 h 4.894792 4.894792 z m 20.902084,-6.2177 v -7.40834 h -1.322917 -1.322916 v 7.40834 7.40833 h 1.322916 1.322917 z m 51.858334,4.61423 v -2.79409 l 0.97685,0.0821 c 0.90635,0.0762 1.11767,0.27785 2.92791,2.7941 l 1.95106,2.71198 h 1.58802 1.58803 l -0.59929,-0.8599 c -0.32961,-0.47294 -1.31255,-1.80495 -2.18433,-2.96001 -0.87177,-1.15506 -1.46849,-2.13897 -1.32605,-2.18645 2.59208,-0.86403 3.92079,-3.58923 2.91899,-5.98689 -0.87561,-2.09562 -2.83201,-2.82342 -7.58963,-2.82342 h -2.89739 v 7.40834 7.40833 h 1.32291 1.32292 z m 0,-7.39236 v -2.24896 l 1.78594,0.004 c 2.04547,0.004 2.96479,0.37259 3.4482,1.38077 0.28109,0.58621 0.27336,0.86567 -0.045,1.62763 -0.44465,1.06421 -1.51366,1.48171 -3.80007,1.48414 l -1.38906,0.001 z m 14.02292,2.77813 v -7.40834 h -1.32292 -1.32291 v 7.40834 7.40833 h 1.32291 1.32292 z m 6.09966,1.78593 0.0142,-5.62239 2.03628,5.6303 2.03628,5.63029 0.91218,-0.074 0.91219,-0.074 1.92157,-5.29167 c 1.05686,-2.91042 1.95607,-5.38131 1.99823,-5.49087 0.0422,-0.10956 0.0349,2.30145 -0.0162,5.35781 l -0.0929,5.55702 h 1.34965 1.34965 v -7.40833 -7.40834 h -1.82377 c -1.48906,0 -1.85822,0.085 -2.01143,0.46302 -0.10321,0.25467 -0.89305,2.48709 -1.7552,4.96094 -0.86214,2.47386 -1.63591,4.67651 -1.71948,4.89479 -0.0862,0.22526 -0.52746,-0.71178 -1.02038,-2.16702 -0.47764,-1.41014 -1.32434,-3.82116 -1.88155,-5.35781 l -1.01311,-2.79392 h -1.92816 -1.92817 v 7.40834 7.40833 h 1.32292 1.32292 l 0.0142,-5.6224 z m 18.22956,3.70417 0.65842,-1.78594 h 2.82888 2.82888 l 0.70772,1.85209 0.70773,1.85208 h 1.41857 1.41858 l -0.34869,-0.8599 c -0.19178,-0.47294 -1.50755,-3.80669 -2.92394,-7.40833 l -2.57525,-6.54844 -1.22975,0.001 -1.22975,0.001 -2.77812,7.05342 c -1.52797,3.87939 -2.81789,7.21923 -2.86648,7.42189 -0.0688,0.28707 0.2223,0.35062 1.31821,0.28771 l 1.40657,-0.0807 0.65842,-1.78594 z m 2.44621,-6.48229 c 0.45467,-1.27331 0.90928,-2.41099 1.01026,-2.52818 0.14679,-0.17037 1.84764,4.15419 1.84764,4.69779 0,0.08 -0.82902,0.14549 -1.84228,0.14549 h -1.84228 z m 12.86364,2.9314 c -0.0826,-3.92483 -0.036,-5.33443 0.16512,-4.99211 0.25226,0.42947 5.71734,8.42123 6.74101,9.8576 0.33941,0.47625 0.68041,0.58857 1.8074,0.59532 l 1.38907,0.008 v -7.40833 -7.40834 h -1.34644 -1.34643 l 0.0897,5.4023 c 0.0493,2.97126 0.0704,5.38227 0.0468,5.35781 -0.0236,-0.0245 -0.97607,-1.42254 -2.11666,-3.10683 -1.1406,-1.68429 -2.78818,-4.09228 -3.66131,-5.3511 l -1.5875,-2.28874 -1.38906,-0.007 -1.38906,-0.007 v 7.40834 7.40833 h 1.35623 1.35624 z m 16.18801,-1.93921 v -7.40834 h -1.32291 -1.32292 v 7.40834 7.40833 h 1.32292 1.32291 z m 5.75111,5.4901 0.65897,-1.78594 h 2.84381 2.84381 l 0.6529,1.78594 0.65291,1.78594 1.36804,0.08 c 0.75242,0.044 1.36942,-0.0156 1.37111,-0.13229 0.002,-0.11675 -1.27286,-3.45672 -2.83234,-7.42216 l -2.83542,-7.2099 h -1.22528 -1.22528 l -2.92742,7.42075 -2.92743,7.42075 1.46132,-0.0786 1.46133,-0.0786 z m 1.78022,-4.63021 c 0.0988,-0.25466 0.49848,-1.38569 0.88821,-2.51341 0.38972,-1.12772 0.76812,-2.05039 0.84088,-2.05039 0.0728,0 0.45116,0.92267 0.84088,2.05039 0.38973,1.12772 0.78942,2.25875 0.88821,2.51341 0.1609,0.41478 -0.0192,0.46302 -1.72909,0.46302 -1.70984,0 -1.88998,-0.0482 -1.72909,-0.46302 z"
         id="path25"
         inkscape:connector-curvature="0" />
      <path
         style="fill:#191919;stroke-width:0.26458335"
         d="M 2.3614127,131.68375 C -6.0678866,117.69876 -13.005183,106.14697 -13.054801,106.0131 c -0.05344,-0.14417 1.880829,-0.21395 4.7452217,-0.17118 l 4.8354371,0.0722 19.4053672,25.13542 c 10.672953,13.82448 19.525309,25.34377 19.671901,25.59844 0.251645,0.43716 -0.241231,0.46302 -8.82459,0.46302 H 17.687413 Z M 34.717111,152.54694 C 21.493846,135.46434 7.0114563,116.61471 7.0114563,116.48649 c 0,-0.0839 0.1374587,-0.0676 0.3054636,0.0362 0.1907751,0.11791 0.2335807,0.0725 0.1140095,-0.12099 -0.1053,-0.17038 -0.2887991,-0.24962 -0.4077762,-0.17609 -0.2576195,0.15922 -0.8566023,-0.50076 -0.7485846,-0.82481 0.041486,-0.12446 0.00443,-0.22629 -0.082343,-0.22629 -0.3851862,0 -1.0334196,-0.77093 -0.9701998,-1.15384 0.038301,-0.23198 -0.083532,-0.42446 -0.270741,-0.42772 -0.3901181,-0.007 -0.8741408,-0.67927 -0.6961796,-0.96721 0.065532,-0.10604 -0.020251,-0.27895 -0.1906302,-0.38425 -0.2092653,-0.12933 -0.240996,-0.0709 -0.097792,0.18016 0.3030231,0.53119 -0.1192641,0.0744 -1.3075262,-1.41433 -0.5517115,-0.69122 -0.9027459,-1.25677 -0.7800766,-1.25677 0.1226696,0 -0.041582,-0.18535 -0.3650028,-0.41188 -0.3234208,-0.22653 -0.58803803,-0.52419 -0.58803803,-0.66146 0,-0.13727 -0.18294166,-0.45794 -0.40653681,-0.7126 -0.22359515,-0.25466 -0.71042903,-0.84997 -1.08185298,-1.32291 l -0.67531648,-0.8599 h 4.3335948 4.3335947 l 25.6539894,24.75945 c 14.109693,13.6177 26.068722,25.16676 26.575619,25.66458 l 0.921634,0.90514 H 49.415406 38.25005 Z M 158.8823,146.26309 v -2.64583 h 1.5875 c 0.88194,0 1.5875,0.11759 1.5875,0.26458 0,0.14552 -0.53579,0.26458 -1.19063,0.26458 -1.18432,0 -1.19062,0.005 -1.19062,0.92604 0,0.904 0.0252,0.92605 1.05833,0.92605 0.58208,0 1.05833,0.11906 1.05833,0.26458 0,0.14552 -0.47625,0.26458 -1.05833,0.26458 -1.03314,0 -1.05833,0.022 -1.05833,0.92604 v 0.92605 h 1.32291 c 0.72761,0 1.32292,0.11906 1.32292,0.26458 0,0.14925 -0.74965,0.26458 -1.71979,0.26458 h -1.71979 z m 4.11163,2.39839 c -0.0841,-0.1361 0.23531,-0.28493 0.70982,-0.33073 1.12884,-0.10897 1.32268,-0.87082 0.28766,-1.13059 -0.68503,-0.17193 -1.12661,-0.55445 -1.13631,-0.98432 -0.01,-0.43981 0.89541,-1.01108 1.60234,-1.01108 0.98108,0 1.01918,0.4659 0.0473,0.57774 -0.8481,0.0976 -0.99619,0.82035 -0.19844,0.96846 1.85512,0.34441 1.43815,2.15796 -0.49615,2.15796 -0.36478,0 -0.73206,-0.11135 -0.81617,-0.24744 z m 3.87878,-0.0701 c -0.17462,-0.17462 -0.3175,-0.889 -0.3175,-1.5875 0,-0.9525 -0.0992,-1.27 -0.39687,-1.27 -0.21828,0 -0.39688,-0.11906 -0.39688,-0.26458 0,-0.14552 0.1786,-0.26458 0.39688,-0.26458 0.22048,0 0.39687,-0.23519 0.39687,-0.52917 0,-0.29104 0.11906,-0.52917 0.26459,-0.52917 0.14552,0 0.26458,0.23813 0.26458,0.52917 0,0.35278 0.17639,0.52917 0.52917,0.52917 0.29104,0 0.52916,0.11906 0.52916,0.26458 0,0.14552 -0.24465,0.26458 -0.54366,0.26458 -0.48351,0 -0.53474,0.13906 -0.46302,1.25677 0.069,1.07512 0.16725,1.26907 0.67988,1.34184 0.32958,0.0468 0.53091,0.19561 0.4474,0.33072 -0.21416,0.34653 -1.01353,0.30524 -1.3906,-0.0718 z m 2.47563,-0.27054 c -0.54429,-0.77708 -0.56546,-3.11612 -0.0282,-3.11612 0.28149,0 0.40481,0.40517 0.46303,1.52135 0.0743,1.42523 0.12114,1.52135 0.7408,1.52135 0.61967,0 0.66647,-0.0961 0.74081,-1.52135 0.0582,-1.11618 0.18153,-1.52135 0.46302,-1.52135 0.28164,0 0.38367,0.33617 0.38367,1.26404 0,1.58479 -0.55646,2.44012 -1.5875,2.44012 -0.48929,0 -0.91175,-0.21131 -1.17562,-0.58804 z m 4.08055,0.0534 c -1.16803,-1.16803 -0.22153,-3.34056 1.35459,-3.10923 0.73294,0.10757 0.76757,0.067 0.76757,-0.89986 0,-0.72362 0.11323,-1.01251 0.39687,-1.01251 0.32705,0 0.39688,0.47868 0.39688,2.72059 v 2.72058 l -1.19611,0.0521 c -0.88748,0.0386 -1.33124,-0.0831 -1.7198,-0.47162 z m 1.70364,-0.15511 c 0.28093,-0.10781 0.41852,-0.49408 0.41852,-1.17501 0,-1.15263 -0.27946,-1.43027 -1.20567,-1.1978 -0.54719,0.13733 -0.64642,0.32054 -0.64642,1.19348 0,1.1681 0.46531,1.55088 1.43357,1.17933 z m 2.2706,-1.16232 c 0,-1.46991 0.0819,-1.85208 0.39687,-1.85208 0.31499,0 0.39688,0.38217 0.39688,1.85208 0,1.46991 -0.0819,1.85208 -0.39688,1.85208 -0.31498,0 -0.39687,-0.38217 -0.39687,-1.85208 z m 1.90513,1.53471 c -0.40823,-0.40823 -0.4083,-1.3382 -1.3e-4,-1.74638 0.17462,-0.17462 0.72498,-0.3175 1.22302,-0.3175 0.77491,0 0.85801,-0.0572 0.57615,-0.39687 -0.18116,-0.21828 -0.67199,-0.39688 -1.09073,-0.39688 -0.41875,0 -0.76136,-0.11906 -0.76136,-0.26458 0,-0.34712 1.48014,-0.34066 2.13406,0.009 0.41571,0.22249 0.51178,0.56208 0.51178,1.80919 v 1.53529 l -1.13758,0.043 c -0.62567,0.0237 -1.28051,-0.0999 -1.45521,-0.2746 z m 1.78942,-0.59708 c 0.4243,-0.51125 0.12789,-0.93763 -0.65184,-0.93763 -0.71474,0 -1.04264,0.37286 -0.8255,0.93871 0.19023,0.49575 1.06554,0.49511 1.47734,-0.001 z m 1.8617,-0.88009 v -1.79455 l 1.31381,-0.0572 c 1.57494,-0.0685 1.86119,0.28612 1.86119,2.30594 0,1.015 -0.0963,1.34031 -0.39688,1.34031 -0.30414,0 -0.39687,-0.33634 -0.39687,-1.43959 0,-1.53596 -0.22048,-1.86904 -1.0607,-1.60236 -0.44085,0.13992 -0.5268,0.40172 -0.5268,1.60457 0,1.10129 -0.0928,1.43738 -0.39688,1.43738 -0.31376,0 -0.39687,-0.37578 -0.39687,-1.79454 z m 4.67431,1.61815 c -0.097,-0.097 -0.17639,-0.81138 -0.17639,-1.5875 0,-1.07793 -0.0937,-1.41111 -0.39688,-1.41111 -0.21828,0 -0.39687,-0.11906 -0.39687,-0.26458 0,-0.14552 0.17859,-0.26458 0.39687,-0.26458 0.22049,0 0.39688,-0.23519 0.39688,-0.52917 0,-0.29104 0.11906,-0.52917 0.26458,-0.52917 0.14552,0 0.26458,0.23813 0.26458,0.52917 0,0.35278 0.17639,0.52917 0.52917,0.52917 0.29104,0 0.52917,0.11906 0.52917,0.26458 0,0.14552 -0.23813,0.26458 -0.52917,0.26458 -0.45237,0 -0.52917,0.17639 -0.52917,1.2154 0,0.99288 0.0969,1.24073 0.52917,1.35377 0.29104,0.0761 0.52917,0.24356 0.52917,0.37211 0,0.27153 -1.15018,0.31827 -1.41111,0.0573 z m 2.65587,-0.15434 c -0.24414,-0.1819 -0.51433,-0.68979 -0.60042,-1.12865 -0.19463,-0.99212 0.68864,-2.24478 1.58281,-2.24478 0.7391,0 1.47701,0.77048 1.47701,1.54218 0,0.50448 -0.14508,0.57448 -1.19062,0.57448 -0.84131,0 -1.19063,0.10814 -1.19063,0.36857 0,0.44745 0.57079,0.68977 1.62476,0.68977 0.45777,0 0.71923,0.11082 0.6242,0.26458 -0.2309,0.3736 -1.79664,0.3291 -2.32711,-0.0661 z m 1.93024,-2.01812 c 0,-0.50039 -0.8292,-0.93337 -1.2632,-0.65961 -0.80737,0.50927 -0.67221,0.8918 0.31511,0.8918 0.52145,0 0.94809,-0.10449 0.94809,-0.23219 z m 3.62601,2.01812 c -0.24414,-0.1819 -0.51433,-0.68979 -0.60042,-1.12865 -0.19463,-0.99212 0.68864,-2.24478 1.58281,-2.24478 0.7391,0 1.47701,0.77048 1.47701,1.54218 0,0.50448 -0.14508,0.57448 -1.19062,0.57448 -0.8413,0 -1.19063,0.10814 -1.19063,0.36857 0,0.44745 0.57079,0.68977 1.62476,0.68977 0.45777,0 0.71923,0.11082 0.6242,0.26458 -0.2309,0.3736 -1.79664,0.3291 -2.32711,-0.0661 z m 1.93024,-2.01812 c 0,-0.50039 -0.8292,-0.93337 -1.2632,-0.65961 -0.80737,0.50927 -0.67221,0.8918 0.31511,0.8918 0.52145,0 0.94809,-0.10449 0.94809,-0.23219 z m 1.5875,0.49677 c 0,-1.05833 0.11339,-1.85208 0.26458,-1.85208 0.14552,0 0.26458,0.13364 0.26458,0.29698 0,0.21021 0.1117,0.20428 0.38232,-0.0203 0.58188,-0.48292 1.54934,-0.22268 1.92227,0.51708 0.48538,0.96284 0.44816,2.91041 -0.0556,2.91041 -0.30494,0 -0.39687,-0.339 -0.39687,-1.46351 0,-1.11087 -0.1043,-1.50353 -0.43284,-1.62961 -0.80612,-0.30933 -1.28253,0.29407 -1.36693,1.73131 -0.11942,2.03358 -0.58148,1.64399 -0.58148,-0.49026 z m 5.82083,-0.79375 c 0,-2.02937 0.0822,-2.64583 0.35302,-2.64583 0.19416,0 1.0276,0.97596 1.85208,2.16881 l 1.49907,2.16882 v -2.16882 c 0,-1.26949 0.10971,-2.16881 0.26458,-2.16881 0.15875,0 0.26458,1.05833 0.26458,2.64583 0,1.94447 -0.0877,2.64375 -0.33073,2.63797 -0.1819,-0.004 -0.92604,-0.90125 -1.65364,-1.99318 l -1.32292,-1.98532 -0.0773,1.99318 c -0.0595,1.53443 -0.16606,1.99318 -0.46302,1.99318 -0.31223,0 -0.38575,-0.5043 -0.38575,-2.64583 z m 5.72955,2.16198 c -0.59177,-0.6539 -0.56575,-2.22884 0.046,-2.78243 0.94713,-0.85714 2.03523,-0.47948 2.41293,0.83749 l 0.24128,0.84129 h -1.30445 c -0.71744,0 -1.30445,0.0953 -1.30445,0.21167 0,0.46717 0.68298,0.84667 1.52374,0.84667 0.52512,0 0.82184,0.10825 0.72522,0.26458 -0.27757,0.44913 -1.87041,0.29989 -2.34024,-0.21927 z m 1.94337,-1.865 c 0,-0.50039 -0.8292,-0.93337 -1.2632,-0.65961 -0.80737,0.50927 -0.67221,0.8918 0.31511,0.8918 0.52145,0 0.94809,-0.10449 0.94809,-0.23219 z m 1.32291,2.26796 c 0,-0.0445 0.29196,-0.47661 0.64881,-0.96028 l 0.6488,-0.87941 -0.68021,-0.89179 c -0.54765,-0.71801 -0.59674,-0.89179 -0.25192,-0.89179 0.23555,0 0.43206,0.0893 0.43669,0.19843 0.005,0.10914 0.17685,0.42084 0.38272,0.69267 0.3585,0.47337 0.40188,0.46219 1.02741,-0.26458 0.79547,-0.92423 1.18457,-0.71536 0.43724,0.23471 -0.66685,0.84777 -0.66449,1.01674 0.0265,1.89514 0.30763,0.39109 0.47555,0.7941 0.37316,0.89558 -0.10239,0.10148 -0.46695,-0.16686 -0.81013,-0.5963 l -0.62396,-0.78081 -0.56215,0.71466 c -0.46797,0.59493 -1.05292,0.94702 -1.05292,0.63377 z m 4.40973,-0.0955 c -0.097,-0.097 -0.17639,-0.81138 -0.17639,-1.5875 0,-1.07793 -0.0937,-1.41111 -0.39688,-1.41111 -0.21828,0 -0.39687,-0.11906 -0.39687,-0.26458 0,-0.14552 0.17859,-0.26458 0.39687,-0.26458 0.22049,0 0.39688,-0.23519 0.39688,-0.52917 0,-0.29104 0.11906,-0.52917 0.26458,-0.52917 0.14552,0 0.26458,0.23813 0.26458,0.52917 0,0.35278 0.17639,0.52917 0.52917,0.52917 0.29104,0 0.52917,0.11906 0.52917,0.26458 0,0.14552 -0.23813,0.26458 -0.52917,0.26458 -0.45237,0 -0.52917,0.17639 -0.52917,1.2154 0,0.99288 0.0969,1.24073 0.52917,1.35377 0.29104,0.0761 0.52917,0.24356 0.52917,0.37211 0,0.27153 -1.15018,0.31827 -1.41111,0.0573 z m 2.62063,-0.23938 c -0.46827,-0.46828 -0.59794,-3.28839 -0.15119,-3.28839 0.14552,0 0.26458,0.51302 0.26458,1.14005 0,1.3319 0.48499,2.13278 1.20812,1.995 0.42331,-0.0806 0.52538,-0.35979 0.59102,-1.61627 0.0612,-1.17174 0.17451,-1.51878 0.49579,-1.51878 0.34245,0 0.39523,0.2557 0.29709,1.43917 -0.0656,0.79154 -0.27356,1.62498 -0.46204,1.85208 -0.44219,0.53281 -1.70931,0.5312 -2.24337,-0.003 z m -43.80744,-4.47902 c 0,-0.21828 0.11906,-0.39687 0.26458,-0.39687 0.14552,0 0.26459,0.17859 0.26459,0.39687 0,0.21828 -0.11907,0.39688 -0.26459,0.39688 -0.14552,0 -0.26458,-0.1786 -0.26458,-0.39688 z M 72.793429,132.6611 c -0.563927,-0.20974 -1.430393,-0.77396 -1.925481,-1.25382 -1.412039,-1.3686 -1.679406,-2.71794 -1.679406,-8.47555 v -4.97906 h 1.455208 1.455209 v 5.17252 c 0,4.10595 0.08276,5.33255 0.401354,5.94864 1.105403,2.13762 4.699617,2.0891 5.873687,-0.0793 0.384191,-0.70956 0.479335,-1.72387 0.557993,-5.94865 l 0.09483,-5.09323 h 1.31739 1.317392 l -0.08497,5.6224 c -0.08365,5.53493 -0.09588,5.64096 -0.786628,6.81586 -1.002966,1.70597 -2.443975,2.44815 -4.973947,2.5618 -1.295318,0.0582 -2.357678,-0.0443 -3.022632,-0.29163 z m 19.566875,0.0764 c -1.435349,-0.33658 -1.740511,-0.66452 -1.740511,-1.87043 0,-0.96262 0.04628,-1.02892 0.595312,-0.8528 3.322979,1.06598 6.494201,0.7177 7.061944,-0.77557 0.518583,-1.36398 -0.275198,-2.26118 -2.365589,-2.67379 -3.49372,-0.68961 -4.783731,-1.7125 -4.96842,-3.93963 -0.152091,-1.83402 0.455125,-3.15701 1.882185,-4.10087 0.968618,-0.64064 1.292264,-0.70342 3.596672,-0.69771 3.344315,0.008 4.088323,0.35327 4.202833,1.94872 0.0736,1.02595 0.0286,1.13615 -0.39688,0.97096 -2.237466,-0.86872 -5.474149,-0.80641 -6.224179,0.11984 -1.144336,1.41319 -0.147788,2.6247 2.685256,3.26449 3.326863,0.7513 4.514203,1.87633 4.514203,4.2773 0,2.93363 -2.331596,4.6634 -6.199588,4.59938 -0.883095,-0.0146 -2.07255,-0.13607 -2.643238,-0.26989 z m 19.471866,-0.2076 c -1.73361,-0.59873 -3.31967,-2.09177 -3.94612,-3.71468 -0.69618,-1.80357 -0.60974,-5.03936 0.18266,-6.83758 1.28758,-2.92195 4.19733,-4.50351 7.73925,-4.20657 0.99008,0.083 1.91904,0.22439 2.06433,0.31419 0.14529,0.0898 0.26417,0.70591 0.26417,1.36914 0,1.12449 -0.0402,1.1944 -0.59531,1.03594 -4.3555,-1.24324 -7.32099,0.78313 -7.33638,5.01308 -0.0145,3.98433 2.91729,5.99607 6.9636,4.77831 l 1.23267,-0.37098 v 1.28459 c 0,1.25903 -0.0197,1.29007 -0.99218,1.56013 -1.50708,0.41853 -4.00414,0.31753 -5.57669,-0.22557 z m 12.81959,0.11536 c -0.56392,-0.20101 -1.43039,-0.75808 -1.92548,-1.23794 -1.41204,-1.3686 -1.6794,-2.71794 -1.6794,-8.47555 v -4.97906 h 1.30268 1.30269 l 0.0864,5.09323 c 0.0962,5.67137 0.2895,6.4256 1.85446,7.23487 1.14036,0.5897 3.19592,0.3831 4.03545,-0.4056 0.95142,-0.89381 1.20792,-2.46723 1.20792,-7.40945 v -4.51305 h 1.34923 1.34924 l -0.0996,5.6224 c -0.11039,6.22994 -0.19017,6.56637 -1.91663,8.08223 -0.51278,0.45022 -1.38207,0.94348 -1.93175,1.09613 -1.37506,0.38186 -3.70352,0.33081 -4.93516,-0.10821 z m -67.634052,-7.28421 v -7.40834 h 1.455209 1.455208 v 6.21771 6.21771 h 3.439583 3.439584 v 1.19062 1.19063 H 61.9125 57.017708 Z m 28.045835,0 v -7.40834 h 1.322916 1.322917 v 7.40834 7.40833 h -1.322917 -1.322916 z m 51.858337,0 v -7.40834 h 2.89739 c 3.52705,0 5.32198,0.35525 6.40673,1.268 2.64114,2.22238 1.6786,6.40408 -1.73609,7.54231 -0.14244,0.0475 0.45428,1.03139 1.32605,2.18645 0.87178,1.15506 1.85472,2.48707 2.18433,2.96001 l 0.59929,0.8599 h -1.58803 -1.58802 l -1.95106,-2.71198 c -1.81024,-2.51625 -2.02156,-2.71791 -2.92791,-2.7941 l -0.97685,-0.0821 v 2.79409 2.7941 h -1.32292 -1.32291 z m 6.43728,-0.8135 c 1.9183,-0.53267 2.19799,-2.98296 0.44188,-3.87121 -0.3638,-0.18402 -1.46513,-0.33633 -2.44739,-0.33848 l -1.78594,-0.004 v 2.24896 2.24896 l 1.38906,-10e-4 c 0.76399,-8.2e-4 1.84506,-0.1281 2.40239,-0.28286 z m 7.58564,0.8135 v -7.40834 h 1.32291 1.32292 v 7.40834 7.40833 h -1.32292 -1.32291 z m 6.08541,0 v -7.40834 h 1.92817 1.92816 l 1.01311,2.79392 c 0.55721,1.53665 1.40391,3.94767 1.88155,5.35781 0.49292,1.45524 0.93414,2.39228 1.02038,2.16702 0.0836,-0.21828 0.85734,-2.42093 1.71948,-4.89479 0.86215,-2.47385 1.65199,-4.70627 1.7552,-4.96094 0.15321,-0.37804 0.52237,-0.46302 2.01143,-0.46302 h 1.82377 v 7.40834 7.40833 h -1.34965 -1.34965 l 0.0929,-5.55702 c 0.0511,-3.05636 0.0584,-5.46737 0.0162,-5.35781 -0.0422,0.10956 -0.94137,2.58045 -1.99823,5.49087 l -1.92157,5.29167 -0.91219,0.074 -0.91218,0.074 -2.03628,-5.63029 -2.03628,-5.6303 -0.0142,5.62239 -0.0142,5.6224 h -1.32292 -1.32292 z m 17.50644,7.06907 c 0.0486,-0.20266 1.33851,-3.54251 2.86648,-7.42189 l 2.77812,-7.05342 1.22975,-10e-4 1.22975,-0.001 2.57525,6.54844 c 1.41639,3.60164 2.73216,6.93539 2.92394,7.40833 l 0.34869,0.8599 h -1.41858 -1.41857 l -0.70773,-1.85209 -0.70772,-1.85208 h -2.82888 -2.82888 l -0.65842,1.78594 -0.65842,1.78594 -1.40657,0.0807 c -1.09591,0.0629 -1.38706,-5.3e-4 -1.31821,-0.28772 z m 8.68731,-5.89165 c 0,-0.5436 -1.70085,-4.86816 -1.84764,-4.69779 -0.10098,0.11719 -0.55559,1.25487 -1.01026,2.52818 l -0.82666,2.3151 h 1.84228 c 1.01326,0 1.84228,-0.0655 1.84228,-0.14549 z m 7.40834,-1.17742 v -7.40834 l 1.38906,0.007 1.38906,0.007 1.5875,2.28875 c 0.87313,1.25881 2.52071,3.6668 3.66131,5.35109 1.14059,1.68429 2.09309,3.08236 2.11666,3.10683 0.0236,0.0245 0.003,-2.38655 -0.0468,-5.35781 l -0.0897,-5.4023 h 1.34643 1.34644 v 7.40834 7.40833 l -1.38907,-0.008 c -1.12699,-0.007 -1.46799,-0.11906 -1.8074,-0.59531 -1.02367,-1.43637 -6.48875,-9.42814 -6.74101,-9.85761 -0.20107,-0.34232 -0.24769,1.06729 -0.16512,4.99211 l 0.11507,5.46912 h -1.35624 -1.35623 z m 16.13958,0 v -7.40834 h 1.32292 1.32291 v 7.40834 7.40833 h -1.32291 -1.32292 z m 7.74275,0.0124 2.92742,-7.42075 h 1.22528 1.22528 l 2.83542,7.2099 c 1.55948,3.96544 2.83403,7.30541 2.83234,7.42216 -0.002,0.11674 -0.61869,0.17628 -1.37111,0.13229 l -1.36804,-0.08 -0.65291,-1.78594 -0.6529,-1.78594 h -2.84381 -2.84381 l -0.65897,1.78594 -0.65897,1.78594 -1.46133,0.0786 -1.46132,0.0786 2.92743,-7.42075 z m 5.89259,0.84748 c -0.0988,-0.25466 -0.49848,-1.38569 -0.88821,-2.51341 -0.38972,-1.12772 -0.76812,-2.05039 -0.84088,-2.05039 -0.0728,0 -0.45116,0.92267 -0.84088,2.05039 -0.38973,1.12772 -0.78942,2.25875 -0.88821,2.51341 -0.16089,0.41478 0.0192,0.46302 1.72909,0.46302 1.70984,0 1.88999,-0.0482 1.72909,-0.46302 z"
         id="path23"
         inkscape:connector-curvature="0" />
    </g>
  </g>
</svg>
